<svg width="512" height="512" viewBox="0 0 512 512" fill="none" xmlns="http://www.w3.org/2000/svg">
<rect width="512" height="512" fill="white"/>
<path d="M92.0625 171V331H48.9375V171H92.0625ZM140.285 376C135.337 376 130.624 375.609 126.145 374.828C121.665 374.099 117.733 373.083 114.348 371.781L123.723 341.156C127.264 342.406 130.493 343.214 133.41 343.578C136.379 343.943 138.905 343.734 140.988 342.953C143.124 342.172 144.66 340.688 145.598 338.5L146.535 336.313L104.348 211H149.348L168.723 294.125H169.973L189.66 211H234.973L191.223 341C189.035 347.615 185.858 353.552 181.691 358.812C177.577 364.125 172.16 368.318 165.441 371.391C158.723 374.464 150.337 376 140.285 376ZM356.926 250.062H317.238C317.03 247.615 316.171 245.505 314.66 243.734C313.15 241.964 311.197 240.609 308.801 239.672C306.457 238.682 303.853 238.188 300.988 238.188C297.29 238.188 294.113 238.865 291.457 240.219C288.801 241.573 287.499 243.5 287.551 246C287.499 247.771 288.254 249.411 289.816 250.922C291.431 252.432 294.53 253.604 299.113 254.437L323.488 258.812C335.78 261.052 344.921 264.828 350.91 270.141C356.952 275.401 359.999 282.458 360.051 291.312C359.999 299.854 357.447 307.276 352.395 313.578C347.395 319.828 340.546 324.672 331.848 328.109C323.202 331.495 313.332 333.187 302.238 333.187C283.905 333.187 269.556 329.437 259.191 321.937C248.879 314.437 243.124 304.542 241.926 292.25H284.738C285.311 296.052 287.186 298.995 290.363 301.078C293.592 303.109 297.655 304.125 302.551 304.125C306.509 304.125 309.764 303.448 312.316 302.094C314.921 300.74 316.249 298.813 316.301 296.313C316.249 294.021 315.103 292.198 312.863 290.844C310.676 289.49 307.238 288.396 302.551 287.562L281.301 283.812C269.061 281.677 259.895 277.615 253.801 271.625C247.707 265.635 244.686 257.927 244.738 248.5C244.686 240.167 246.874 233.109 251.301 227.328C255.78 221.495 262.16 217.068 270.441 214.047C278.775 210.974 288.645 209.438 300.051 209.438C317.395 209.438 331.066 213.031 341.066 220.219C351.118 227.406 356.405 237.354 356.926 250.062ZM486.262 250.062H446.574C446.366 247.615 445.507 245.505 443.996 243.734C442.486 241.964 440.533 240.609 438.137 239.672C435.793 238.682 433.189 238.188 430.324 238.188C426.626 238.188 423.449 238.865 420.793 240.219C418.137 241.573 416.835 243.5 416.887 246C416.835 247.771 417.59 249.411 419.152 250.922C420.767 252.432 423.866 253.604 428.449 254.437L452.824 258.812C465.116 261.052 474.257 264.828 480.246 270.141C486.288 275.401 489.335 282.458 489.387 291.312C489.335 299.854 486.783 307.276 481.73 313.578C476.73 319.828 469.882 324.672 461.184 328.109C452.538 331.495 442.668 333.187 431.574 333.187C413.241 333.187 398.892 329.437 388.527 321.937C378.215 314.437 372.46 304.542 371.262 292.25H414.074C414.647 296.052 416.522 298.995 419.699 301.078C422.928 303.109 426.991 304.125 431.887 304.125C435.845 304.125 439.1 303.448 441.652 302.094C444.257 300.74 445.585 298.813 445.637 296.313C445.585 294.021 444.439 292.198 442.199 290.844C440.012 289.49 436.574 288.396 431.887 287.562L410.637 283.812C398.397 281.677 389.23 277.615 383.137 271.625C377.043 265.635 374.022 257.927 374.074 248.5C374.022 240.167 376.21 233.109 380.637 227.328C385.116 221.495 391.496 217.068 399.777 214.047C408.111 210.974 417.98 209.438 429.387 209.438C446.73 209.438 460.402 213.031 470.402 220.219C480.454 227.406 485.741 237.354 486.262 250.062Z" fill="black"/>
</svg>
