<?xml version="1.0" standalone="no"?>
<!DOCTYPE svg PUBLIC "-//W3C//DTD SVG 20010904//EN"
 "http://www.w3.org/TR/2001/REC-SVG-20010904/DTD/svg10.dtd">
<svg version="1.0" xmlns="http://www.w3.org/2000/svg"
 width="700.000000pt" height="700.000000pt" viewBox="0 0 700.000000 700.000000"
 preserveAspectRatio="xMidYMid meet">
<metadata>
Created by potrace 1.14, written by Peter Selinger 2001-2017
</metadata>
<g transform="translate(0.000000,700.000000) scale(0.100000,-0.100000)"
fill="#000000" stroke="none">
<path d="M670 3565 l0 -1095 293 2 292 3 3 1093 2 1092 -295 0 -295 0 0 -1095z"/>
<path d="M3952 4130 c-308 -32 -521 -168 -583 -373 -31 -101 -24 -258 14 -341
37 -79 84 -136 154 -182 94 -62 184 -91 425 -134 255 -46 281 -53 326 -87 26
-20 32 -31 32 -63 0 -50 -39 -84 -116 -100 -74 -16 -150 -5 -216 28 -42 21
-58 37 -77 75 l-24 47 -290 0 -290 0 7 -41 c19 -117 75 -217 171 -307 151
-142 344 -203 640 -203 299 0 490 65 646 220 115 115 155 218 147 375 -3 59
-11 96 -30 137 -73 160 -219 237 -568 299 -299 53 -320 58 -357 95 -20 20 -33
43 -33 58 0 36 42 81 88 95 55 17 156 15 200 -4 49 -20 99 -69 113 -111 l11
-33 269 0 269 0 0 23 c0 42 -30 147 -56 200 -78 156 -250 269 -469 310 -104
20 -298 28 -403 17z"/>
<path d="M5722 4130 c-348 -36 -570 -202 -602 -451 -20 -165 29 -314 134 -407
97 -85 201 -122 479 -172 122 -22 242 -48 267 -57 132 -49 117 -163 -26 -193
-129 -27 -257 19 -295 106 l-20 44 -289 0 -290 0 0 -23 c0 -64 54 -192 112
-265 153 -193 442 -285 816 -260 416 27 702 276 679 593 -13 189 -128 312
-359 383 -37 12 -169 40 -294 62 -248 45 -280 54 -312 95 -45 57 -14 122 67
145 47 13 136 13 184 -1 49 -13 115 -72 125 -113 l8 -31 273 -3 272 -2 -7 47
c-37 253 -215 424 -505 483 -106 22 -306 31 -417 20z"/>
<path d="M1430 4113 c0 -5 128 -389 285 -854 157 -466 285 -852 285 -859 0
-25 -35 -70 -66 -85 -40 -19 -91 -19 -173 0 -35 9 -66 13 -68 11 -8 -8 -123
-380 -123 -397 0 -20 75 -42 199 -60 103 -14 301 -6 386 16 190 51 341 181
424 367 24 55 631 1844 631 1861 0 4 -137 7 -305 7 l-305 0 -9 -22 c-4 -13
-66 -269 -137 -570 -72 -305 -133 -546 -139 -545 -5 2 -66 246 -136 543 -69
296 -129 551 -132 567 l-7 27 -305 0 c-168 0 -305 -3 -305 -7z"/>
</g>
</svg>
